# 3ds Max Wavefront OBJ Exporter v0.97b - (c)2007 guruware
# File Created: 25.02.2023 16:34:51

mtllib Mrf Wood Panel Floor.mtl

#
# object Mrf_Wood_Panel_Set0801
#

v  140.0000 0.0000 -10.0000
v  140.0000 0.0000 10.0000
v  -140.0000 0.0000 10.0000
v  -140.0000 0.0000 -10.0000
v  140.0000 350.0000 -10.0000
v  -140.0000 350.0000 -10.0000
v  -140.0000 350.0000 10.0000
v  140.0000 350.0000 10.0000
# 8 vertices

vn 0.0000 -1.0000 -0.0000
vn 0.0000 1.0000 -0.0000
vn 0.0000 0.0000 1.0000
vn 1.0000 0.0000 -0.0000
vn 0.0000 0.0000 -1.0000
vn -1.0000 0.0000 -0.0000
# 6 vertex normals

vt 0.5295 1.0036 1.2152
vt 0.4581 1.0036 1.2152
vt 0.4581 0.0036 1.2152
vt 0.5295 0.0036 1.2152
vt 0.4705 1.0036 -0.0348
vt 0.4705 0.0036 -0.0348
vt 0.5419 0.0036 -0.0348
vt 0.5419 1.0036 -0.0348
vt -0.0348 1.0036 0.4581
vt -0.0348 0.0036 0.4581
vt 1.2152 0.0036 0.4581
vt 1.2152 1.0036 0.4581
vt -0.0348 0.5295 1.0036
vt -0.0348 0.4581 1.0036
vt 1.2152 0.4581 1.0036
vt 1.2152 0.5295 1.0036
vt 1.0348 0.0036 0.5295
vt 1.0348 1.0036 0.5295
vt -0.2152 1.0036 0.5295
vt -0.2152 0.0036 0.5295
vt 1.0348 0.4581 0.0036
vt 1.0348 0.5295 0.0036
vt -0.2152 0.5295 0.0036
vt -0.2152 0.4581 0.0036
# 24 texture coords

g Mrf_Wood_Panel_Set0801
usemtl wire_224086086
s 2
f 1/1/1 2/2/1 3/3/1 4/4/1 
s 4
f 5/5/2 6/6/2 7/7/2 8/8/2 
s 8
f 8/9/3 7/10/3 3/11/3 2/12/3 
s 16
f 5/13/4 8/14/4 2/15/4 1/16/4 
s 32
f 6/17/5 5/18/5 1/19/5 4/20/5 
s 64
f 7/21/6 6/22/6 4/23/6 3/24/6 
# 6 polygons

